<svg width="167" height="86" viewBox="0 0 167 86" fill="none" xmlns="http://www.w3.org/2000/svg">
<path d="M63.1289 44.0666H102.554V0.999984H63.1289V44.0666Z" stroke="#231F20" stroke-width="1.51196" stroke-miterlimit="22.9256"/>
<path fill-rule="evenodd" clip-rule="evenodd" d="M95.8731 42.024H70.2997C70.7226 34.2611 72.1657 27.6697 74.2123 22.818C74.339 23.1138 74.4679 23.4043 74.5994 23.6883C76.8577 28.5703 79.8152 31.3186 83.3099 31.3186C86.8687 31.3186 89.6847 28.5211 91.779 23.8242C91.9046 23.5429 92.0274 23.2556 92.1477 22.9634C94.1526 27.8487 95.5319 34.4262 95.8731 42.024Z" fill="#231F20"/>
<path fill-rule="evenodd" clip-rule="evenodd" d="M64.9415 42.0238H69.8471L69.848 42.0114C69.909 40.8883 69.9923 39.7888 70.0964 38.7141H64.9415V42.0238ZM64.9415 2.92355H69.8761L69.8773 2.94072C69.9611 4.04727 70.0657 5.1464 70.1901 6.23349H64.9415V2.92355ZM96.2668 2.92355H100.74V6.23349H95.9857C96.1015 5.12768 96.195 4.02605 96.2661 2.93762L96.2668 2.92355ZM64.9415 7.88208H70.3961C70.5856 9.28561 70.8087 10.6636 71.0646 12.0052H64.9415V7.88208ZM95.7969 7.88208H100.747V12.0052H95.1744C95.417 10.6442 95.6245 9.26379 95.7969 7.88208ZM64.9415 13.4853H71.3631C71.7184 15.1534 72.1252 16.7557 72.5805 18.2705H64.9415V13.4853ZM94.8946 13.4853H100.735V18.2705H93.7504C94.1848 16.7371 94.5662 15.1308 94.8946 13.4853ZM64.9415 25.5057H72.7678C73.1487 24.3669 73.559 23.2963 73.9942 22.2981C73.5997 21.3352 73.2294 20.3148 72.8844 19.2458H64.9415V25.5057ZM93.5528 25.5057H100.725V19.2458H93.464C93.1352 20.3247 92.779 21.362 92.3954 22.3452C92.8074 23.3317 93.1943 24.3872 93.5528 25.5057ZM91.8282 22.5726C89.5389 27.8355 86.4864 30.7759 83.2116 30.7759C80.0957 30.7759 77.0116 27.865 74.5633 22.5138C76.8844 17.0741 80.0639 14.0752 83.2116 14.0752C86.5183 14.0752 89.5071 17.1331 91.8282 22.5726ZM77.5801 19.6147H80.5328C82.1323 19.6147 82.8091 20.1835 82.8091 21.3213C82.8091 22.772 81.5787 23.1132 80.5637 23.1132H79.2718V25.1044H77.5801V21.2075V19.6147ZM82.0986 19.2933C82.5562 19.4954 82.8685 19.826 83.0486 20.2932C83.15 19.7951 83.4467 19.428 84.0313 19.2933H82.0986ZM86.4384 21.8353C86.4384 21.4206 86.6479 21.2614 86.9349 21.2631H87.4067L87.4197 22.7564L88.3171 21.2631H88.8778L87.9119 22.846L88.4387 22.8426L89.3137 24.8998H87.9682L87.4067 23.5741V24.8998H86.4384V21.8353ZM80.8582 25.0956V23.6336C81.4282 23.6608 82.1514 23.4451 82.4028 23.3196C82.6568 23.1927 82.8744 22.9441 83.0446 22.6462C83.3824 22.0536 83.3147 21.3678 83.3496 20.7394C83.3716 20.0132 83.9824 19.6286 84.7872 19.6353H87.4098V20.7096C87.1329 20.7096 86.6895 20.7138 86.4435 20.7138C85.9547 20.71 85.7965 21.2824 85.7984 21.6795L85.8066 23.4699C85.8114 24.4933 85.0829 25.0939 84.2704 25.0956H80.8582ZM64.9415 31.4623H71.1802C71.531 29.769 71.9381 28.1704 72.3935 26.677H64.9415V31.4623ZM95.0665 31.4623H100.736V26.677H93.9109C94.3478 28.1748 94.7352 29.7743 95.0665 31.4623ZM64.9415 37.0653H70.2743C70.4445 35.6415 70.6516 34.2657 70.8925 32.9423H64.9415V37.0653ZM95.9155 37.0653H100.748V32.9423H95.3386C95.566 34.2693 95.7594 35.6453 95.9155 37.0653ZM96.2964 42.0238H100.741V38.7141H96.0779C96.1722 39.7918 96.2455 40.8921 96.2958 42.0133L96.2964 42.0238Z" fill="#CC172F"/>
<path fill-rule="evenodd" clip-rule="evenodd" d="M95.7596 2.90807H70.3867C70.5521 6.62857 71.633 15.1079 74.2175 21.7979C74.2425 21.7427 74.2677 21.6874 74.2931 21.6328C76.7582 16.305 79.9406 13.4108 83.2708 13.4108C86.5813 13.4108 89.7296 16.3441 92.0798 21.6133C92.1103 21.6818 92.1406 21.7508 92.171 21.82C94.6943 15.094 95.6266 6.55774 95.7596 2.90807Z" fill="#231F20"/>
<path d="M12.3235 59.3471V63.2281C12.4333 63.2281 12.5407 63.2281 12.6458 63.2281C12.751 63.2281 12.8767 63.2281 13.023 63.2281L14.463 63.1319C14.9657 63.0429 15.3383 62.8555 15.5807 62.5742C15.8226 62.2931 15.9438 61.8385 15.9438 61.2123C15.9438 60.6042 15.7976 60.1517 15.505 59.85C15.2491 59.5963 14.8652 59.4387 14.3533 59.3745C14.2344 59.3654 14.12 59.3585 14.0103 59.3539C13.9007 59.3494 13.7589 59.3471 13.5853 59.3471H13.3108H12.3235ZM12.3235 68.6174H11.1718V58.3323H13.873C14.3943 58.3323 14.856 58.3758 15.2583 58.4627C15.6604 58.5497 16.0057 58.7255 16.2936 58.9953C16.5817 59.2627 16.7917 59.5826 16.9244 59.9574C17.0569 60.33 17.1233 60.7389 17.1233 61.1848C17.1233 61.8041 17.0181 62.3368 16.8078 62.7824C16.561 63.3103 16.1816 63.692 15.6696 63.9296C15.3589 64.0463 15.0275 64.1308 14.6754 64.1812C14.3235 64.2314 13.9235 64.2566 13.4755 64.2566C13.3476 64.2566 13.1509 64.2566 12.8858 64.2566C12.6207 64.2566 12.4333 64.2566 12.3235 64.2566V68.6174ZM18.3298 64.6818C18.3298 63.5204 18.522 62.611 18.9061 61.9528C19.354 61.1848 20.0535 60.8008 21.0041 60.8008C22.0007 60.8008 22.7229 61.1344 23.1708 61.8019C23.5821 62.4234 23.788 63.3926 23.788 64.7091C23.788 65.9981 23.6004 66.9808 23.2258 67.6573C22.796 68.4437 22.1011 68.8367 21.1413 68.8367C20.1447 68.8367 19.4087 68.4299 18.9335 67.6163C18.5312 66.9214 18.3298 65.9433 18.3298 64.6818ZM19.4545 64.7091C19.4545 65.6691 19.5276 66.3638 19.6738 66.7936C19.9207 67.5249 20.4006 67.8906 21.1138 67.8906C21.7813 67.8906 22.2292 67.5158 22.4576 66.7661C22.5948 66.3271 22.6635 65.6782 22.6635 64.8188C22.6635 63.9047 22.5857 63.2189 22.4303 62.7618C22.1833 62.0396 21.7264 61.6783 21.059 61.6783C20.3824 61.6783 19.9207 62.0626 19.6738 62.8303C19.5276 63.2784 19.4545 63.9047 19.4545 64.7091ZM25.4746 68.6174V58.305H26.5441V68.6174H25.4746ZM28.5601 68.6174V60.979H29.6022V68.6174H28.5601ZM28.5601 60.0328V58.6615H29.6022V60.0328H28.5601ZM31.7826 67.0951V61.898H30.7406V60.979H31.7826V58.9221H32.8524V60.979H34.1414V61.898H32.8524V67.2186C32.8524 67.3923 32.8865 67.5181 32.9552 67.5957C33.0237 67.6734 33.1677 67.7121 33.3871 67.7121H34.0866V68.6174H32.9071C32.4136 68.6174 32.0933 68.4939 31.9472 68.2471C31.8374 68.0643 31.7826 67.6802 31.7826 67.0951ZM34.9914 64.901C34.9914 63.8955 35.1149 63.0635 35.3596 62.4051C35.7686 61.3172 36.4635 60.7733 37.4462 60.7733C38.3993 60.7733 39.0597 61.1436 39.4232 61.8841C39.6679 62.387 39.7912 63.1412 39.7912 64.1469V64.901H36.116L36.0887 65.2714C36.0887 66.021 36.1572 66.5922 36.2944 66.9853C36.5045 67.5889 36.884 67.8906 37.4326 67.8906C37.9992 67.8906 38.3833 67.6665 38.5844 67.2186C38.7033 66.9535 38.7627 66.5695 38.7627 66.0668H39.7912C39.7912 66.9171 39.6038 67.5751 39.229 68.0414C38.8085 68.5717 38.2096 68.8367 37.4326 68.8367C36.436 68.8367 35.7414 68.3294 35.3482 67.3146C35.1104 66.693 34.9914 65.8884 34.9914 64.901ZM38.6667 64.0098C38.6667 63.1046 38.5592 62.4898 38.3443 62.1654C38.1296 61.8408 37.8348 61.6783 37.46 61.6783C37.0487 61.6783 36.7286 61.8385 36.4999 62.1584C36.2257 62.5515 36.0887 63.1687 36.0887 64.0098H38.6667ZM41.094 64.9147C41.094 63.6531 41.2401 62.7114 41.5327 62.0898C41.9442 61.2123 42.6799 60.7733 43.7405 60.7733C44.4171 60.7733 44.9566 60.9836 45.3587 61.4041C45.7977 61.8612 46.017 62.5149 46.017 63.3651H45.0022C45.0022 62.8991 44.92 62.5286 44.7553 62.2543C44.536 61.8888 44.1884 61.7058 43.7132 61.7058C43.0914 61.7058 42.6664 62.0807 42.4379 62.8303C42.2915 63.3058 42.2185 64.0006 42.2185 64.9147C42.2185 65.7925 42.2824 66.4323 42.4103 66.8346C42.6297 67.5384 43.0641 67.8906 43.7132 67.8906C44.1336 67.8906 44.4537 67.7213 44.6732 67.3831C44.8925 67.0449 45.0022 66.5649 45.0022 65.9433H46.017C46.017 66.629 45.889 67.2186 45.6332 67.7121C45.24 68.462 44.5999 68.8367 43.7132 68.8367C42.744 68.8367 42.0493 68.4711 41.6287 67.7398C41.2722 67.1088 41.094 66.1672 41.094 64.9147ZM47.5665 68.5899V58.305H48.6636V61.7883C48.8283 61.5049 49.1025 61.2648 49.4863 61.0682C49.8703 60.8716 50.2681 60.7733 50.6795 60.7733C51.2008 60.7733 51.612 60.9243 51.9138 61.226C52.2701 61.5732 52.4485 62.1081 52.4485 62.8303V68.5899H51.3515V63.3104C51.3515 62.771 51.2828 62.3778 51.1458 62.1308C50.9813 61.8293 50.6886 61.6783 50.268 61.6783C49.8111 61.6783 49.4292 61.827 49.1231 62.124C48.8168 62.4211 48.6636 62.853 48.6636 63.42V68.5899H47.5665ZM54.3958 68.6174V60.979H55.4928V61.8431C55.502 61.7791 55.6115 61.651 55.8221 61.4589C56.3247 61.002 56.8139 60.7733 57.2891 60.7733C57.9565 60.7733 58.4595 60.9426 58.7976 61.2808C59.136 61.6192 59.3051 62.1538 59.3051 62.8853V68.6174H58.208V63.42C58.208 62.8166 58.1579 62.4051 58.0573 62.1858C57.9018 61.8474 57.5865 61.6783 57.1111 61.6783C56.654 61.6783 56.27 61.8248 55.9591 62.1173C55.6484 62.4097 55.4928 62.8257 55.4928 63.3651V68.6174H54.3958ZM61.2798 68.6174V60.979H62.3221V68.6174H61.2798ZM61.2798 60.0328V58.6615H62.3221V60.0328H61.2798ZM64.2554 68.6174V58.305H65.3526V64.5446L68.0129 60.979H69.2746L66.9161 63.9548L69.3432 68.6174L68.0906 68.6197L66.1891 64.8188L65.3526 65.9158V68.6174H64.2554ZM69.8229 66.7661C69.8229 66.1443 69.9373 65.6645 70.1659 65.3261C70.3579 65.0336 70.6642 64.8097 71.0847 64.6541L72.7164 63.9823C72.872 63.9273 73.0274 63.868 73.1829 63.8039C73.3383 63.7126 73.4159 63.5754 73.4159 63.3926V62.5973C73.4159 62.3414 73.3383 62.1354 73.1829 61.9801C72.9817 61.7791 72.6846 61.6783 72.2915 61.6783C71.8162 61.6783 71.5008 61.7745 71.3452 61.9663C71.1898 62.1584 71.1121 62.5105 71.1121 63.0223H70.1249C70.1249 62.227 70.3146 61.6533 70.694 61.3012C71.0732 60.9495 71.6057 60.7733 72.2915 60.7733C73.224 60.7733 73.8501 61.0338 74.1702 61.555C74.3621 61.8657 74.4582 62.3549 74.4582 63.0223V67.1226C74.4582 67.4333 74.4811 67.6301 74.5267 67.7121C74.5725 67.7946 74.6683 67.8448 74.8147 67.8631C74.8605 67.8448 74.9152 67.8356 74.9792 67.8356C75.0433 67.8356 75.0936 67.8356 75.1302 67.8356V68.6174L74.4582 68.6721C74.1017 68.6721 73.8547 68.5855 73.7108 68.4116C73.569 68.2379 73.4982 67.95 73.4982 67.5476C73.2879 68.0047 73.0091 68.3385 72.6617 68.5486C72.3785 68.7225 72.0491 68.8093 71.6744 68.8093C70.9523 68.8093 70.4448 68.5899 70.1522 68.1511C69.9327 67.8219 69.8229 67.3604 69.8229 66.7661ZM73.3337 64.4896C72.5932 64.8372 72.0996 65.0702 71.8527 65.1889C71.2494 65.4814 70.9477 65.9798 70.9477 66.6839C70.9477 67.0951 71.0414 67.4037 71.2288 67.6095C71.4162 67.815 71.6561 67.9181 71.9487 67.9181C72.296 67.9181 72.6138 67.7831 72.9018 67.5135C73.1898 67.2438 73.3337 66.8988 73.3337 66.4781V64.4896ZM79.6144 65.3536H80.739V65.6963C80.739 66.5831 80.9172 67.1682 81.2737 67.4518C81.5938 67.7076 82.1012 67.8356 82.7959 67.8356C83.4084 67.8356 83.877 67.6642 84.2016 67.3214C84.5261 66.9785 84.6882 66.501 84.6882 65.8884V65.5319C84.661 65.2209 84.5694 64.9765 84.414 64.7982C84.2563 64.62 83.9638 64.4394 83.5342 64.2566C83.3582 64.1835 82.8963 64.0098 82.1446 63.7355C81.7856 63.6075 81.4703 63.484 81.1961 63.3651C80.5996 63.1183 80.1881 62.7389 79.9572 62.227C79.8202 61.9161 79.7517 61.5184 79.7517 61.0338C79.7517 60.0465 80.0533 59.2923 80.6567 58.7713C81.1869 58.3142 81.8543 58.0855 82.6589 58.0855C83.7559 58.0855 84.5329 58.3873 84.99 58.9908C85.3465 59.4568 85.5248 60.1288 85.5248 61.0066H84.373C84.373 60.3481 84.2266 59.8729 83.9342 59.5803C83.6416 59.2878 83.1983 59.1415 82.604 59.1415C82.0005 59.1415 81.564 59.3061 81.2943 59.6351C81.0246 59.9643 80.8897 60.4306 80.8897 61.0338C80.8897 61.5732 81.1413 61.9847 81.644 62.2681C82.3297 62.5332 82.8461 62.7299 83.1935 62.8578C84.1443 63.2508 84.7432 63.5434 84.99 63.7355C85.5477 64.1652 85.8265 64.773 85.8265 65.5593C85.8265 66.7203 85.5021 67.5843 84.855 68.1511C84.3159 68.6265 83.6142 68.8643 82.7479 68.8643C81.5709 68.8643 80.7229 68.5349 80.2019 67.8768C79.811 67.374 79.6144 66.6838 79.6144 65.8061V65.3536ZM83.2074 55.6033H84.6882L82.9194 57.5371H81.9869L83.2074 55.6033ZM88.7542 68.6174L86.8138 60.979H87.9385L89.3235 67.7121L90.5575 60.979H91.6821L92.9713 67.7099L94.3287 60.979H95.4533L93.5608 68.6174H92.409L91.0923 61.9001L89.8766 68.6151L88.7542 68.6174ZM96.715 68.6174V60.979H97.7571V68.6174H96.715ZM96.715 60.0328V58.6615H97.7571V60.0328H96.715ZM101.528 68.8229C100.632 68.7409 100.011 68.2059 99.6633 67.2186C99.453 66.6245 99.3478 65.8519 99.3478 64.901C99.3478 63.8955 99.4711 63.0635 99.7158 62.4051C100.125 61.3172 100.82 60.7733 101.802 60.7733C102.756 60.7733 103.416 61.1436 103.779 61.8841C104.024 62.387 104.147 63.1412 104.147 64.1469V64.901H100.472L100.445 65.2714C100.445 66.021 100.514 66.5922 100.651 66.9853C100.861 67.5889 101.24 67.8906 101.789 67.8906C102.355 67.8906 102.74 67.6665 102.941 67.2186C103.06 66.9535 103.119 66.5695 103.119 66.0668H104.147C104.147 66.9535 103.937 67.6347 103.517 68.1099C103.206 68.4574 102.799 68.6813 102.296 68.7819C102.058 69.0745 101.905 69.351 101.837 69.6115C101.768 69.872 101.734 70.1669 101.734 70.4959C101.734 70.6423 101.798 70.7724 101.924 70.8868C102.052 71.0011 102.228 71.0582 102.454 71.0582C102.662 71.0582 102.852 70.9942 103.023 70.8664L102.872 71.4696C102.746 71.5429 102.623 71.5885 102.504 71.6067C102.388 71.625 102.218 71.6344 102.001 71.6344C101.546 71.6344 101.217 71.545 101.012 71.3669C100.808 71.1885 100.692 70.9395 100.664 70.6194C100.664 70.2904 100.728 69.9863 100.856 69.7075C100.984 69.4287 101.208 69.134 101.528 68.8229ZM103.023 64.0098C103.023 63.1046 102.915 62.4898 102.701 62.1654C102.486 61.8408 102.191 61.6783 101.816 61.6783C101.405 61.6783 101.085 61.8385 100.856 62.1584C100.582 62.5515 100.445 63.1687 100.445 64.0098H103.023ZM106.012 67.0951V61.898H104.97V60.979H106.012V58.9221H107.082V60.979H108.371V61.898H107.082V67.2186C107.082 67.3923 107.116 67.5181 107.185 67.5957C107.253 67.6734 107.397 67.7121 107.617 67.7121H108.316V68.6174H107.137C106.643 68.6174 106.323 68.4939 106.177 68.2471C106.067 68.0643 106.012 67.6802 106.012 67.0951ZM109.331 64.6818C109.331 63.5204 109.523 62.611 109.907 61.9528C110.355 61.1848 111.055 60.8008 112.005 60.8008C113.002 60.8008 113.724 61.1344 114.172 61.8019C114.583 62.4234 114.789 63.3926 114.789 64.7091C114.789 65.9981 114.601 66.9808 114.227 67.6573C113.797 68.4437 113.102 68.8367 112.142 68.8367C111.146 68.8367 110.41 68.4299 109.935 67.6163C109.532 66.9214 109.331 65.9433 109.331 64.6818ZM110.455 64.7091C110.455 65.6691 110.529 66.3638 110.675 66.7936C110.922 67.5249 111.402 67.8906 112.115 67.8906C112.782 67.8906 113.23 67.5158 113.459 66.7661C113.596 66.3271 113.664 65.6782 113.664 64.8188C113.664 63.9047 113.587 63.2189 113.431 62.7618C113.184 62.0396 112.728 61.6783 112.06 61.6783C111.384 61.6783 110.922 62.0626 110.675 62.8303C110.529 63.2784 110.455 63.9047 110.455 64.7091ZM116.421 68.6174V58.305H117.518V64.5446L120.178 60.979H121.44L119.081 63.9548L121.508 68.6174L120.256 68.6197L118.354 64.8188L117.518 65.9158V68.6174H116.421ZM122.688 68.6174V60.9518H123.703V62.2681C123.949 61.7837 124.21 61.4453 124.484 61.2533C124.832 61.0066 125.33 60.8831 125.979 60.8831V62.0075C125.814 61.9801 125.709 61.9641 125.663 61.9595C125.618 61.9551 125.536 61.9528 125.417 61.9528C124.905 61.9528 124.5 62.1423 124.203 62.5217C123.906 62.9013 123.757 63.443 123.757 64.1469V68.6174H122.688ZM126.733 67.7144L130.239 61.8703H126.866V60.979H131.391V61.8703L127.853 67.7121H131.418V68.5899H126.728L126.733 67.7144ZM132.068 70.1121C132.369 70.2217 132.648 70.2766 132.904 70.2766C133.224 70.2766 133.496 70.16 133.72 69.927C133.944 69.694 134.12 69.3031 134.248 68.7546L131.807 60.979H132.931L134.673 67.6301L136.442 60.979H137.566L135.496 67.6301C135.094 68.8733 134.874 69.5453 134.838 69.6458C134.609 70.2308 134.367 70.6286 134.111 70.8389C133.964 70.9486 133.782 71.0378 133.562 71.1062C133.343 71.1748 133.087 71.2091 132.794 71.2091C132.639 71.2091 132.509 71.2023 132.403 71.1885C132.298 71.1748 132.186 71.1497 132.068 71.1131V70.1121ZM138.389 62.8303C138.389 62.2087 138.586 61.7104 138.977 61.3358C139.367 60.9607 139.934 60.7733 140.679 60.7733C141.415 60.7733 141.975 60.9335 142.362 61.2533C142.803 61.6192 143.024 62.2087 143.024 63.0223H141.955C141.955 62.5469 141.868 62.2087 141.692 62.0075C141.516 61.8064 141.205 61.7058 140.762 61.7058C140.346 61.7058 140.035 61.7949 139.827 61.9732C139.619 62.1515 139.514 62.3916 139.514 62.6931C139.514 63.2416 139.713 63.6302 140.108 63.8588C140.264 63.9502 140.679 64.1264 141.351 64.3867C142.023 64.6472 142.515 64.9307 142.823 65.2372C143.132 65.5433 143.285 65.9296 143.285 66.3958C143.285 67.1821 143.054 67.7808 142.592 68.1923C142.131 68.6036 141.507 68.8093 140.721 68.8093C139.797 68.8093 139.148 68.5349 138.773 67.9864C138.517 67.6118 138.389 67.0815 138.389 66.3958H139.432C139.432 66.8802 139.509 67.2369 139.665 67.4655C139.857 67.749 140.209 67.8906 140.721 67.8906C141.178 67.8906 141.532 67.7877 141.783 67.582C142.035 67.3762 142.16 67.0951 142.16 66.7386C142.16 66.2815 142.032 65.9525 141.774 65.7511C141.616 65.6233 141.187 65.4359 140.483 65.1889C139.777 64.9421 139.31 64.7228 139.079 64.5308C138.62 64.156 138.389 63.5892 138.389 62.8303ZM144.807 68.6174V58.305H145.904V64.5446L148.564 60.979H149.826L147.467 63.9548L149.895 68.6174L148.642 68.6197L146.741 64.8188L145.904 65.9158V68.6174H144.807ZM150.374 66.7661C150.374 66.1443 150.489 65.6645 150.717 65.3261C150.909 65.0336 151.216 64.8097 151.636 64.6541L153.268 63.9823C153.424 63.9273 153.579 63.868 153.734 63.8039C153.89 63.7126 153.967 63.5754 153.967 63.3926V62.5973C153.967 62.3414 153.89 62.1354 153.734 61.9801C153.533 61.7791 153.236 61.6783 152.843 61.6783C152.368 61.6783 152.052 61.7745 151.897 61.9663C151.741 62.1584 151.664 62.5105 151.664 63.0223H150.676C150.676 62.227 150.866 61.6533 151.245 61.3012C151.625 60.9495 152.157 60.7733 152.843 60.7733C153.775 60.7733 154.402 61.0338 154.722 61.555C154.914 61.8657 155.01 62.3549 155.01 63.0223V67.1226C155.01 67.4333 155.033 67.6301 155.078 67.7121C155.124 67.7946 155.22 67.8448 155.366 67.8631C155.412 67.8448 155.467 67.8356 155.531 67.8356C155.595 67.8356 155.645 67.8356 155.681 67.8356V68.6174L155.01 68.6721C154.653 68.6721 154.406 68.5855 154.262 68.4116C154.121 68.2379 154.05 67.95 154.05 67.5476C153.839 68.0047 153.561 68.3385 153.213 68.5486C152.93 68.7225 152.601 68.8093 152.226 68.8093C151.504 68.8093 150.996 68.5899 150.704 68.1511C150.484 67.8219 150.374 67.3604 150.374 66.7661ZM153.885 64.4896C153.145 64.8372 152.651 65.0702 152.404 65.1889C151.801 65.4814 151.499 65.9798 151.499 66.6839C151.499 67.0951 151.593 67.4037 151.78 67.6095C151.968 67.815 152.207 67.9181 152.5 67.9181C152.848 67.9181 153.165 67.7831 153.453 67.5135C153.741 67.2438 153.885 66.8988 153.885 66.4781V64.4896Z" fill="#231F20"/>
<path d="M0 82.9238V72.6115H1.12454V77.9458L4.90926 72.6115H6.29429L3.03282 76.9221L6.43155 82.9238H4.9778L2.2215 77.9481L1.12454 79.3744V82.9238H0ZM7.556 82.9238V75.2855H8.59827V82.9238H7.556ZM7.556 74.3393V72.968H8.59827V74.3393H7.556ZM10.1888 79.2075C10.1888 78.2019 10.3123 77.37 10.557 76.7116C10.966 75.6237 11.6609 75.0798 12.6436 75.0798C13.5965 75.0798 14.2571 75.4501 14.6206 76.1906C14.8653 76.6934 14.9884 77.4477 14.9884 78.4533V79.2075H11.3134L11.2861 79.5778C11.2861 80.3275 11.3545 80.8987 11.4916 81.2918C11.7019 81.8954 12.0813 82.1971 12.6298 82.1971C13.1966 82.1971 13.5807 81.973 13.7818 81.5251C13.9007 81.26 13.9601 80.876 13.9601 80.3733H14.9884C14.9884 81.2236 14.8012 81.8816 14.4261 82.3478C14.0057 82.8782 13.407 83.1431 12.6298 83.1431C11.6334 83.1431 10.9385 82.6358 10.5455 81.6211C10.3077 80.9995 10.1888 80.1948 10.1888 79.2075ZM13.8639 78.3163C13.8639 77.4111 13.7566 76.7963 13.5417 76.4717C13.327 76.1473 13.032 75.9848 12.6574 75.9848C12.2461 75.9848 11.9258 76.145 11.6973 76.4648C11.4231 76.858 11.2861 77.4752 11.2861 78.3163H13.8639ZM16.6616 82.9238V72.6115H17.7312V82.9238H16.6616ZM19.3494 79.2211C19.3494 77.9596 19.4956 77.0179 19.7881 76.3963C20.1996 75.5187 20.9353 75.0798 21.996 75.0798C22.6725 75.0798 23.212 75.2901 23.6142 75.7106C24.0531 76.1677 24.2724 76.8213 24.2724 77.6716H23.2576C23.2576 77.2055 23.1752 76.8351 23.0106 76.5608C22.7914 76.1951 22.4438 76.0123 21.9686 76.0123C21.3468 76.0123 20.9218 76.3872 20.6931 77.1368C20.5468 77.6122 20.4739 78.3071 20.4739 79.2211C20.4739 80.099 20.5378 80.7388 20.6657 81.1411C20.8851 81.8449 21.3196 82.1971 21.9686 82.1971C22.3891 82.1971 22.7092 82.0278 22.9286 81.6896C23.1479 81.3514 23.2576 80.8714 23.2576 80.2498H24.2724C24.2724 80.9355 24.1443 81.5251 23.8884 82.0186C23.4954 82.7685 22.8553 83.1431 21.9686 83.1431C20.9995 83.1431 20.3048 82.7776 19.8841 82.0463C19.5276 81.4153 19.3494 80.4737 19.3494 79.2211ZM25.3967 79.2075C25.3967 78.2019 25.5202 77.37 25.7649 76.7116C26.1739 75.6237 26.8688 75.0798 27.8514 75.0798C28.8046 75.0798 29.4651 75.4501 29.8285 76.1906C30.0731 76.6934 30.1965 77.4477 30.1965 78.4533V79.2075H26.5212L26.4939 79.5778C26.4939 80.3275 26.5626 80.8987 26.6997 81.2918C26.9098 81.8954 27.2892 82.1971 27.8379 82.1971C28.4046 82.1971 28.7887 81.973 28.9897 81.5251C29.1086 81.26 29.168 80.876 29.168 80.3733H30.1965C30.1965 81.2236 30.009 81.8816 29.6342 82.3478C29.2138 82.8782 28.6149 83.1431 27.8379 83.1431C26.8415 83.1431 26.1466 82.6358 25.7534 81.6211C25.5156 80.9995 25.3967 80.1948 25.3967 79.2075ZM29.072 78.3163C29.072 77.4111 28.9645 76.7963 28.7496 76.4717C28.5349 76.1473 28.2401 75.9848 27.8652 75.9848C27.4539 75.9848 27.1339 76.145 26.9052 76.4648C26.631 76.858 26.4939 77.4752 26.4939 78.3163H29.072ZM35.4075 72.6115H36.5597V80.0303C36.5597 80.7983 36.7423 81.3468 37.108 81.6759C37.428 81.9684 37.9078 82.1148 38.548 82.1148C39.2429 82.1148 39.7364 81.9389 40.029 81.5844C40.3215 81.2325 40.4679 80.6476 40.4679 79.8315V72.6115H41.5922V80.476C41.5922 81.2463 41.3409 81.8793 40.838 82.3731C40.2987 82.9055 39.5582 83.1708 38.6165 83.1708C37.4464 83.1708 36.6099 82.9009 36.107 82.3616C35.6407 81.8587 35.4075 81.0817 35.4075 80.0303V72.6115ZM43.6767 82.9238V75.2855H44.774V76.1496C44.7829 76.0856 44.8925 75.9575 45.103 75.7654C45.6059 75.3084 46.0948 75.0798 46.5702 75.0798C47.2375 75.0798 47.7404 75.2491 48.0786 75.5873C48.4169 75.9257 48.5861 76.4602 48.5861 77.1918V82.9238H47.489V77.7265C47.489 77.1231 47.4388 76.7116 47.3382 76.4923C47.1827 76.1539 46.8674 75.9848 46.392 75.9848C45.9349 75.9848 45.5509 76.1312 45.24 76.4238C44.9293 76.7162 44.774 77.1322 44.774 77.6716V82.9238H43.6767ZM50.5608 82.9238V75.2855H51.6031V82.9238H50.5608ZM50.5608 74.3393V72.968H51.6031V74.3393H50.5608ZM55.0725 82.9238L52.796 75.2855H53.9203L55.6621 81.989L57.4036 75.2855H58.5283L56.2518 82.9238H55.0725ZM59.2687 79.2075C59.2687 78.2019 59.3921 77.37 59.6366 76.7116C60.0456 75.6237 60.7404 75.0798 61.7234 75.0798C62.6763 75.0798 63.3368 75.4501 63.7004 76.1906C63.9449 76.6934 64.0682 77.4477 64.0682 78.4533V79.2075H60.3931L60.3658 79.5778C60.3658 80.3275 60.4344 80.8987 60.5714 81.2918C60.7817 81.8954 61.1611 82.1971 61.7096 82.1971C62.2765 82.1971 62.6605 81.973 62.8616 81.5251C62.9805 81.26 63.0399 80.876 63.0399 80.3733H64.0682C64.0682 81.2236 63.8809 81.8816 63.5059 82.3478C63.0855 82.8782 62.4867 83.1431 61.7096 83.1431C60.7132 83.1431 60.0183 82.6358 59.6251 81.6211C59.3875 80.9995 59.2687 80.1948 59.2687 79.2075ZM62.9437 78.3163C62.9437 77.4111 62.8364 76.7963 62.6216 76.4717C62.4066 76.1473 62.1117 75.9848 61.7371 75.9848C61.3258 75.9848 61.0056 76.145 60.7771 76.4648C60.5028 76.858 60.3658 77.4752 60.3658 78.3163H62.9437ZM65.8784 82.9238V75.2583H66.8933V76.5745C67.14 76.0902 67.4007 75.7518 67.6749 75.5598C68.0222 75.313 68.5204 75.1895 69.1696 75.1895V76.314C69.0052 76.2866 68.9 76.2706 68.8542 76.266C68.8084 76.2616 68.7263 76.2593 68.6074 76.2593C68.0954 76.2593 67.6908 76.4488 67.3938 76.8282C67.0966 77.2078 66.9481 77.7494 66.9481 78.4533V82.9238H65.8784ZM69.8962 77.1368C69.8962 76.5152 70.093 76.0169 70.4839 75.6422C70.8745 75.2672 71.4414 75.0798 72.1865 75.0798C72.9224 75.0798 73.4824 75.2399 73.8686 75.5598C74.3097 75.9257 74.5315 76.5152 74.5315 77.3288H73.4618C73.4618 76.8534 73.3749 76.5152 73.1989 76.314C73.023 76.1129 72.7123 76.0123 72.2687 76.0123C71.8527 76.0123 71.542 76.1014 71.3341 76.2797C71.1259 76.4579 71.0208 76.698 71.0208 76.9996C71.0208 77.5481 71.2198 77.9366 71.6152 78.1653C71.7706 78.2567 72.1865 78.4329 72.8585 78.6932C73.5303 78.9537 74.0217 79.2372 74.3303 79.5437C74.6388 79.8498 74.792 80.236 74.792 80.7023C74.792 81.4886 74.5612 82.0873 74.0996 82.4988C73.6377 82.9101 73.0138 83.1158 72.2277 83.1158C71.3042 83.1158 70.6552 82.8414 70.2804 82.2929C70.0243 81.9182 69.8962 81.388 69.8962 80.7023H70.9387C70.9387 81.1867 71.0161 81.5434 71.1717 81.772C71.3637 82.0555 71.7156 82.1971 72.2277 82.1971C72.6846 82.1971 73.039 82.0942 73.2906 81.8884C73.5419 81.6827 73.6675 81.4016 73.6675 81.0451C73.6675 80.588 73.5396 80.2589 73.2814 80.0576C73.1236 79.9297 72.6937 79.7423 71.9899 79.4954C71.2837 79.2486 70.8175 79.0293 70.5866 78.8373C70.1272 78.4625 69.8962 77.8957 69.8962 77.1368ZM76.3965 82.9238V75.2855H77.4387V82.9238H76.3965ZM76.3965 74.3393V72.968H77.4387V74.3393H76.3965ZM79.619 81.4016V76.2045H78.577V75.2855H79.619V73.2285H80.6887V75.2855H81.9778V76.2045H80.6887V81.5251C80.6887 81.6988 80.7229 81.8245 80.7916 81.9022C80.8602 81.9799 81.004 82.0186 81.2235 82.0186H81.923V82.9238H80.7435C80.25 82.9238 79.9297 82.8003 79.7835 82.5536C79.674 82.3708 79.619 81.9867 79.619 81.4016ZM82.5812 84.4186C82.8828 84.5281 83.1617 84.5831 83.4178 84.5831C83.7377 84.5831 84.0096 84.4665 84.2334 84.2335C84.4575 84.0004 84.6334 83.6096 84.7615 83.0611L82.3207 75.2855H83.445L85.1865 81.9366L86.9556 75.2855H88.0801L86.0093 81.9366C85.6072 83.1798 85.3879 83.8517 85.3511 83.9523C85.1226 84.5375 84.8804 84.935 84.6243 85.1454C84.4781 85.2551 84.2952 85.3442 84.0758 85.4127C83.8565 85.4813 83.6006 85.5158 83.308 85.5158C83.1526 85.5158 83.0223 85.5087 82.9171 85.495C82.812 85.4813 82.7 85.4562 82.5812 85.4196V84.4186ZM92.4409 78.9882C92.4409 77.8269 92.6331 76.9175 93.0171 76.2593C93.465 75.4911 94.1645 75.1073 95.1151 75.1073C96.1117 75.1073 96.8339 75.4409 97.2818 76.1083C97.6931 76.7299 97.899 77.6991 97.899 79.0156C97.899 80.3046 97.7115 81.2873 97.3368 81.9638C96.907 82.7502 96.2121 83.1431 95.2523 83.1431C94.2557 83.1431 93.5197 82.7364 93.0445 81.9228C92.6422 81.2279 92.4409 80.2498 92.4409 78.9882ZM93.5656 79.0156C93.5656 79.9756 93.6386 80.6702 93.7849 81.1001C94.0318 81.8314 94.5116 82.1971 95.2248 82.1971C95.8923 82.1971 96.3402 81.8222 96.5686 81.0725C96.7059 80.6336 96.7745 79.9847 96.7745 79.1253C96.7745 78.2112 96.6967 77.5254 96.5413 77.0683C96.2943 76.3461 95.8375 75.9848 95.1701 75.9848C94.4935 75.9848 94.0318 76.369 93.7849 77.1368C93.6386 77.5847 93.5656 78.2112 93.5656 79.0156ZM99.8873 82.9238V76.2045H98.7629V75.2855H99.8873V74.1337C99.8873 73.5669 100.079 73.1509 100.463 72.8857C100.756 72.6846 101.135 72.584 101.601 72.584H102.164V73.5165H101.629C101.4 73.5165 101.231 73.5646 101.122 73.6627C101.012 73.761 100.957 73.9668 100.957 74.2822V75.2855H102.164V76.2045H100.957V82.9238H99.8873ZM106.045 72.6115H112.49V73.6535H109.843V82.9238H108.691V73.6535H106.045V72.6115ZM112.257 79.2075C112.257 78.2019 112.38 77.37 112.625 76.7116C113.034 75.6237 113.729 75.0798 114.711 75.0798C115.664 75.0798 116.325 75.4501 116.688 76.1906C116.933 76.6934 117.056 77.4477 117.056 78.4533V79.2075H113.381L113.354 79.5778C113.354 80.3275 113.422 80.8987 113.559 81.2918C113.77 81.8954 114.149 82.1971 114.698 82.1971C115.265 82.1971 115.649 81.973 115.85 81.5251C115.969 81.26 116.028 80.876 116.028 80.3733H117.056C117.056 81.2236 116.869 81.8816 116.494 82.3478C116.074 82.8782 115.475 83.1431 114.698 83.1431C113.701 83.1431 113.006 82.6358 112.613 81.6211C112.376 80.9995 112.257 80.1948 112.257 79.2075ZM115.932 78.3163C115.932 77.4111 115.825 76.7963 115.61 76.4717C115.395 76.1473 115.1 75.9848 114.725 75.9848C114.314 75.9848 113.994 76.145 113.765 76.4648C113.491 76.858 113.354 77.4752 113.354 78.3163H115.932ZM118.359 79.2211C118.359 77.9596 118.505 77.0179 118.798 76.3963C119.209 75.5187 119.945 75.0798 121.006 75.0798C121.682 75.0798 122.222 75.2901 122.624 75.7106C123.063 76.1677 123.282 76.8213 123.282 77.6716H122.267C122.267 77.2055 122.185 76.8351 122.02 76.5608C121.801 76.1951 121.454 76.0123 120.978 76.0123C120.357 76.0123 119.932 76.3872 119.703 77.1368C119.557 77.6122 119.484 78.3071 119.484 79.2211C119.484 80.099 119.548 80.7388 119.675 81.1411C119.895 81.8449 120.329 82.1971 120.978 82.1971C121.399 82.1971 121.719 82.0278 121.938 81.6896C122.158 81.3514 122.267 80.8714 122.267 80.2498H123.282C123.282 80.9355 123.154 81.5251 122.898 82.0186C122.505 82.7685 121.865 83.1431 120.978 83.1431C120.009 83.1431 119.315 82.7776 118.894 82.0463C118.537 81.4153 118.359 80.4737 118.359 79.2211ZM124.832 82.8963V72.6115H125.929V76.0948C126.093 75.8114 126.368 75.5713 126.752 75.3747C127.136 75.1781 127.533 75.0798 127.945 75.0798C128.466 75.0798 128.877 75.2308 129.179 75.5325C129.535 75.8796 129.714 76.4146 129.714 77.1368V82.8963H128.617V77.6168C128.617 77.0775 128.548 76.6843 128.411 76.4373C128.246 76.1358 127.954 75.9848 127.533 75.9848C127.076 75.9848 126.694 76.1335 126.388 76.4305C126.082 76.7276 125.929 77.1595 125.929 77.7265V82.8963H124.832ZM131.661 82.9238V75.2855H132.758V76.1496C132.767 76.0856 132.877 75.9575 133.087 75.7654C133.59 75.3084 134.079 75.0798 134.554 75.0798C135.222 75.0798 135.725 75.2491 136.063 75.5873C136.401 75.9257 136.57 76.4602 136.57 77.1918V82.9238H135.473V77.7265C135.473 77.1231 135.423 76.7116 135.323 76.4923C135.167 76.1539 134.852 75.9848 134.376 75.9848C133.919 75.9848 133.535 76.1312 133.224 76.4238C132.913 76.7162 132.758 77.1322 132.758 77.6716V82.9238H131.661ZM138.23 78.9882C138.23 77.8269 138.422 76.9175 138.806 76.2593C139.254 75.4911 139.953 75.1073 140.904 75.1073C141.9 75.1073 142.622 75.4409 143.07 76.1083C143.482 76.7299 143.688 77.6991 143.688 79.0156C143.688 80.3046 143.5 81.2873 143.125 81.9638C142.696 82.7502 142.001 83.1431 141.041 83.1431C140.044 83.1431 139.308 82.7364 138.833 81.9228C138.431 81.2279 138.23 80.2498 138.23 78.9882ZM139.354 79.0156C139.354 79.9756 139.427 80.6702 139.573 81.1001C139.82 81.8314 140.3 82.1971 141.014 82.1971C141.681 82.1971 142.129 81.8222 142.357 81.0725C142.494 80.6336 142.563 79.9847 142.563 79.1253C142.563 78.2112 142.485 77.5254 142.33 77.0683C142.083 76.3461 141.626 75.9848 140.959 75.9848C140.282 75.9848 139.82 76.369 139.573 77.1368C139.427 77.5847 139.354 78.2112 139.354 79.0156ZM145.374 82.9238V72.6115H146.444V82.9238H145.374ZM148.144 78.9882C148.144 77.8269 148.336 76.9175 148.72 76.2593C149.168 75.4911 149.868 75.1073 150.818 75.1073C151.815 75.1073 152.537 75.4409 152.985 76.1083C153.396 76.7299 153.602 77.6991 153.602 79.0156C153.602 80.3046 153.415 81.2873 153.04 81.9638C152.61 82.7502 151.915 83.1431 150.955 83.1431C149.959 83.1431 149.223 82.7364 148.748 81.9228C148.345 81.2279 148.144 80.2498 148.144 78.9882ZM149.269 79.0156C149.269 79.9756 149.342 80.6702 149.488 81.1001C149.735 81.8314 150.215 82.1971 150.928 82.1971C151.596 82.1971 152.043 81.8222 152.272 81.0725C152.409 80.6336 152.478 79.9847 152.478 79.1253C152.478 78.2112 152.4 77.5254 152.244 77.0683C151.998 76.3461 151.541 75.9848 150.873 75.9848C150.197 75.9848 149.735 76.369 149.488 77.1368C149.342 77.5847 149.269 78.2112 149.269 79.0156ZM154.946 79.2486C154.946 78.1607 155.069 77.2922 155.316 76.6433C155.709 75.6008 156.399 75.0798 157.387 75.0798C157.725 75.0798 158.045 75.1758 158.347 75.368C158.585 75.5873 158.827 75.8022 159.074 76.0123V75.2855H160.143V81.0725V81.6623C160.143 82.8414 160.015 83.7008 159.759 84.2401C159.366 85.0812 158.607 85.5019 157.483 85.5019C156.797 85.5019 156.26 85.335 155.872 85.0014C155.483 84.6677 155.261 84.2174 155.207 83.6506H156.262C156.262 83.8793 156.368 84.0917 156.58 84.2884C156.793 84.4848 157.099 84.5831 157.494 84.5831C158.123 84.5831 158.562 84.3363 158.811 83.8426C158.987 83.4952 159.074 83.0107 159.074 82.3891V81.9913C158.861 82.3478 158.619 82.629 158.342 82.8347C158.066 83.0404 157.743 83.1431 157.376 83.1431C156.418 83.1431 155.741 82.6725 155.346 81.7306C155.079 81.1001 154.946 80.2727 154.946 79.2486ZM156.016 79.2486C156.016 80.2909 156.137 81.0428 156.379 81.5045C156.621 81.9661 156.999 82.1971 157.51 82.1971C158.169 82.1971 158.617 81.836 158.854 81.1136C159.001 80.6748 159.074 80.0303 159.074 79.1801C159.074 78.2019 159.001 77.4979 158.854 77.0683C158.617 76.3644 158.15 76.0123 157.456 76.0123C156.916 76.0123 156.528 76.3598 156.29 77.0546C156.107 77.5941 156.016 78.3253 156.016 79.2486ZM161.501 84.4186C161.803 84.5281 162.081 84.5831 162.338 84.5831C162.657 84.5831 162.929 84.4665 163.153 84.2335C163.377 84.0004 163.553 83.6096 163.681 83.0611L161.24 75.2855H162.365L164.106 81.9366L165.875 75.2855H167L164.929 81.9366C164.527 83.1798 164.308 83.8517 164.271 83.9523C164.042 84.5375 163.8 84.935 163.544 85.1454C163.398 85.2551 163.215 85.3442 162.996 85.4127C162.776 85.4813 162.52 85.5158 162.228 85.5158C162.072 85.5158 161.942 85.5087 161.837 85.495C161.732 85.4813 161.62 85.4562 161.501 85.4196V84.4186Z" fill="#231F20"/>
</svg>
