<svg width="156" height="55" viewBox="0 0 156 55" fill="none" xmlns="http://www.w3.org/2000/svg">
<path d="M1 54H49.5185V1H1V54Z" stroke="#231F20" stroke-width="0.718034" stroke-miterlimit="22.9256"/>
<path fill-rule="evenodd" clip-rule="evenodd" d="M41.2953 51.4879H9.82349C10.344 41.9345 12.1197 33.8228 14.6385 27.8521C14.7944 28.2164 14.9531 28.5737 15.1148 28.9234C17.8941 34.9312 21.5337 38.3136 25.8342 38.3136C30.2139 38.3136 33.6796 34.8705 36.2568 29.0904C36.4114 28.7441 36.5626 28.3909 36.7107 28.0312C39.178 34.0431 40.8753 42.1377 41.2953 51.4879Z" fill="#231F20"/>
<path fill-rule="evenodd" clip-rule="evenodd" d="M3.229 51.488H9.26617L9.26693 51.4725C9.34227 50.0902 9.44496 48.737 9.57288 47.4146H3.229V51.488ZM3.229 3.36878H9.30198L9.30341 3.38995C9.40661 4.75198 9.53495 6.1047 9.68851 7.44235H3.229V3.36878ZM41.7795 3.36878H47.2849V7.44235H41.4337C41.5763 6.08142 41.6914 4.72582 41.7785 3.38631L41.7795 3.36878ZM3.229 9.4712H9.94172C10.1749 11.1985 10.4497 12.8942 10.7643 14.5452H3.229V9.4712ZM41.2009 9.4712H47.2932V14.5452H40.4349C40.7334 12.8704 40.989 11.1714 41.2009 9.4712ZM3.229 16.367H11.132C11.569 18.4197 12.0696 20.3916 12.6301 22.2556H3.229V16.367ZM40.0908 16.367H47.2782V22.2556H38.6827C39.2173 20.3687 39.6867 18.3921 40.0908 16.367ZM36.3171 27.5498C33.4996 34.0271 29.7433 37.6454 25.713 37.6454C21.8786 37.6454 18.0832 34.0631 15.0701 27.4776C17.9265 20.7835 21.8395 17.0927 25.713 17.0927C29.7824 17.0927 33.4607 20.8559 36.3171 27.5498ZM18.7827 23.9097H22.4166C24.3851 23.9097 25.2177 24.61 25.2177 26.0102C25.2177 27.7954 23.7035 28.2156 22.4545 28.2156H20.8646V30.6659H18.7827V25.8701V23.9097ZM24.3432 23.5145C24.9065 23.7633 25.2909 24.1699 25.5124 24.7449C25.6375 24.1318 26.0024 23.6804 26.7218 23.5145H24.3432ZM29.684 26.643C29.684 26.1324 29.942 25.9366 30.2955 25.9385H30.876L30.8918 27.7764L31.9961 25.9385H32.6863L31.4975 27.8863L32.1459 27.8825L33.2226 30.4139H31.5669L30.876 28.7826V30.4139H29.684V26.643ZM22.8168 30.6553V28.8558C23.5183 28.8891 24.4085 28.624 24.7178 28.4695C25.0303 28.3132 25.2981 28.0075 25.5076 27.6406C25.9234 26.9118 25.84 26.0673 25.8831 25.2942C25.9098 24.4002 26.6619 23.9271 27.6522 23.9355H30.8795V25.2574C30.539 25.2574 29.9931 25.2624 29.6905 25.2624C29.0889 25.2579 28.8943 25.9625 28.8967 26.451L28.9065 28.6542C28.9123 29.9135 28.016 30.6529 27.0163 30.6553H22.8168ZM3.229 31.1598H12.8605C13.3296 29.7585 13.8343 28.4408 14.3699 27.2122C13.8844 26.0272 13.4287 24.7715 13.004 23.4562H3.229V31.1598ZM38.4396 31.1598H47.2656V23.4562H38.3301C37.9255 24.7835 37.4874 26.0602 37.0153 27.2703C37.5224 28.4845 37.9985 29.7832 38.4396 31.1598ZM3.229 38.4899H10.9069C11.3385 36.4062 11.8396 34.4392 12.4002 32.6012H3.229V38.4899ZM40.3023 38.4899H47.2796V32.6012H38.8804C39.4179 34.4447 39.8947 36.4129 40.3023 38.4899ZM3.229 45.3856H9.79196C10.0015 43.6334 10.256 41.9401 10.5527 40.3117H3.229V45.3856ZM41.3471 45.3856H47.2947V40.3117H40.637C40.9173 41.9444 41.1551 43.6381 41.3471 45.3856ZM41.8157 51.488H47.2858V47.4146H41.547C41.6629 48.7409 41.7531 50.095 41.8152 51.4748L41.8157 51.488Z" fill="#CC172F"/>
<path fill-rule="evenodd" clip-rule="evenodd" d="M41.1558 3.35006H9.93091C10.1346 7.92851 11.4645 18.3636 14.6451 26.5967C14.676 26.5288 14.707 26.4609 14.7382 26.3934C17.7719 19.8367 21.6884 16.2751 25.7866 16.2751C29.8606 16.2751 33.7352 19.885 36.6273 26.3696C36.6649 26.4539 36.7025 26.5389 36.7396 26.6238C39.8448 18.3465 40.9924 7.84157 41.1558 3.35006Z" fill="#231F20"/>
<path d="M63.1362 11.8205V16.5964C63.2713 16.5964 63.4036 16.5964 63.5329 16.5964C63.6623 16.5964 63.817 16.5964 63.997 16.5964L65.769 16.4783C66.3879 16.3687 66.8462 16.1378 67.1445 15.792C67.4425 15.446 67.5916 14.8863 67.5916 14.1155C67.5916 13.3673 67.4118 12.8107 67.0517 12.4392C66.7366 12.1272 66.264 11.9328 65.6338 11.8541C65.4877 11.843 65.3471 11.8344 65.2122 11.8289C65.0771 11.8234 64.9027 11.8205 64.6891 11.8205H64.3515H63.1362ZM63.1362 23.2287H61.7188V10.5715H65.0433C65.6847 10.5715 66.2528 10.625 66.7478 10.732C67.2429 10.8388 67.6676 11.0555 68.0221 11.3873C68.3765 11.7166 68.6351 12.1101 68.7984 12.5716C68.9613 13.0299 69.0428 13.5334 69.0428 14.082C69.0428 14.8441 68.9137 15.4995 68.6549 16.0481C68.351 16.6979 67.8841 17.1675 67.2542 17.46C66.8717 17.6035 66.4637 17.7074 66.0305 17.7694C65.5976 17.8313 65.1052 17.8623 64.554 17.8623C64.3966 17.8623 64.1545 17.8623 63.8284 17.8623C63.5019 17.8623 63.2713 17.8623 63.1362 17.8623V23.2287ZM70.528 18.3853C70.528 16.9563 70.7644 15.8368 71.237 15.0269C71.7882 14.082 72.6489 13.6095 73.819 13.6095C75.0452 13.6095 75.9341 14.02 76.4853 14.8412C76.9916 15.6063 77.2448 16.7989 77.2448 18.4192C77.2448 20.0057 77.0142 21.2149 76.553 22.0476C76.0241 23.0151 75.1691 23.4989 73.9877 23.4989C72.7614 23.4989 71.8558 22.9981 71.2707 21.9969C70.7755 21.1419 70.528 19.9379 70.528 18.3853ZM71.9119 18.4192C71.9119 19.6003 72.0019 20.4556 72.1819 20.9842C72.4857 21.8843 73.0765 22.3345 73.9541 22.3345C74.7753 22.3345 75.3267 21.8728 75.608 20.9504C75.7766 20.4105 75.8609 19.6116 75.8609 18.5541C75.8609 17.4288 75.7654 16.5851 75.5741 16.0226C75.2703 15.1338 74.7079 14.6893 73.8867 14.6893C73.054 14.6893 72.4857 15.1618 72.1819 16.1071C72.0019 16.6583 71.9119 17.4288 71.9119 18.4192ZM79.3205 23.2287V10.5379H80.6368V23.2287H79.3205ZM83.1178 23.2287V13.8288H84.4002V23.2287H83.1178ZM83.1178 12.6642V10.9768H84.4002V12.6642H83.1178ZM87.0838 21.3557V14.9596H85.8012V13.8288H87.0838V11.2973H88.4V13.8288H89.9862V14.9596H88.4V21.5076C88.4 21.7212 88.4423 21.8757 88.5265 21.9714C88.611 22.0672 88.7884 22.1149 89.0583 22.1149H89.919V23.2287H88.4675C87.8599 23.2287 87.4664 23.0768 87.2864 22.773C87.1513 22.5481 87.0838 22.0756 87.0838 21.3557ZM91.0325 18.6553C91.0325 17.4178 91.1845 16.3941 91.4853 15.584C91.989 14.2449 92.8441 13.5756 94.0535 13.5756C95.2265 13.5756 96.0392 14.0311 96.4866 14.9425C96.7875 15.5614 96.9394 16.4896 96.9394 17.7271V18.6553H92.4166L92.3829 19.111C92.3829 20.0335 92.4671 20.7366 92.636 21.2206C92.8947 21.9631 93.3614 22.3345 94.0367 22.3345C94.7341 22.3345 95.2068 22.0588 95.4542 21.5076C95.6006 21.181 95.6735 20.7085 95.6735 20.0899H96.9394C96.9394 21.1362 96.7088 21.9461 96.2476 22.52C95.7299 23.1726 94.993 23.4989 94.0367 23.4989C92.8102 23.4989 91.9554 22.8745 91.4715 21.6255C91.1789 20.8604 91.0325 19.8705 91.0325 18.6553ZM95.5555 17.5584C95.5555 16.4445 95.4235 15.6879 95.1588 15.2885C94.8946 14.8892 94.5318 14.6893 94.0706 14.6893C93.5642 14.6893 93.1704 14.8863 92.8892 15.2801C92.5516 15.764 92.3829 16.5232 92.3829 17.5584H95.5555ZM98.5426 18.6722C98.5426 17.1195 98.7223 15.9607 99.0825 15.1957C99.5889 14.1155 100.495 13.5756 101.799 13.5756C102.632 13.5756 103.296 13.8346 103.791 14.352C104.331 14.9144 104.601 15.719 104.601 16.7654H103.352C103.352 16.1913 103.251 15.7359 103.049 15.3983C102.778 14.9481 102.351 14.7232 101.766 14.7232C101.001 14.7232 100.478 15.1847 100.197 16.1071C100.017 16.6921 99.9263 17.5472 99.9263 18.6722C99.9263 19.7522 100.005 20.5398 100.163 21.0349C100.433 21.9012 100.967 22.3345 101.766 22.3345C102.284 22.3345 102.677 22.1263 102.947 21.7099C103.217 21.2938 103.352 20.703 103.352 19.9379H104.601C104.601 20.7817 104.443 21.5076 104.128 22.1149C103.645 23.0377 102.857 23.4989 101.766 23.4989C100.573 23.4989 99.7182 23.0487 99.2009 22.1485C98.7619 21.3725 98.5426 20.2135 98.5426 18.6722ZM106.508 23.1951V10.5379H107.858V14.8244C108.061 14.4755 108.398 14.1804 108.871 13.9384C109.343 13.6966 109.833 13.5756 110.339 13.5756C110.98 13.5756 111.487 13.7613 111.858 14.1326C112.297 14.56 112.516 15.2183 112.516 16.1071V23.1951H111.166V16.6979C111.166 16.0339 111.082 15.5501 110.913 15.2463C110.71 14.8751 110.35 14.6893 109.833 14.6893C109.27 14.6893 108.8 14.8722 108.423 15.2379C108.047 15.6036 107.858 16.1352 107.858 16.8327V23.1951H106.508ZM114.912 23.2287V13.8288H116.262V14.8921C116.274 14.8132 116.409 14.6557 116.668 14.4194C117.286 13.8569 117.888 13.5756 118.473 13.5756C119.295 13.5756 119.913 13.7837 120.33 14.2C120.746 14.6164 120.954 15.2746 120.954 16.1745V23.2287H119.604V16.8327C119.604 16.0903 119.542 15.584 119.418 15.3138C119.227 14.8977 118.839 14.6893 118.254 14.6893C117.691 14.6893 117.219 14.8693 116.836 15.2295C116.454 15.5895 116.262 16.1016 116.262 16.7654V23.2287H114.912ZM123.384 23.2287V13.8288H124.667V23.2287H123.384ZM123.384 12.6642V10.9768H124.667V12.6642H123.384ZM127.046 23.2287V10.5379H128.396V18.2166L131.67 13.8288H133.223L130.32 17.4908L133.308 23.2287L131.766 23.2316L129.426 18.5541L128.396 19.9041V23.2287H127.046ZM133.898 20.9504C133.898 20.1854 134.038 19.5948 134.32 19.1787C134.556 18.8185 134.933 18.5428 135.451 18.3517L137.459 17.5248C137.65 17.4572 137.842 17.3839 138.033 17.3053C138.224 17.1927 138.32 17.024 138.32 16.7989V15.8201C138.32 15.5053 138.224 15.252 138.033 15.0608C137.785 14.8132 137.419 14.6893 136.936 14.6893C136.351 14.6893 135.963 14.8077 135.771 15.044C135.58 15.2801 135.485 15.7133 135.485 16.3432H134.269C134.269 15.3644 134.503 14.6586 134.97 14.2255C135.437 13.7921 136.092 13.5756 136.936 13.5756C138.083 13.5756 138.854 13.8963 139.248 14.5375C139.484 14.9199 139.602 15.522 139.602 16.3432V21.3893C139.602 21.7718 139.63 22.0137 139.686 22.1149C139.743 22.2163 139.861 22.2782 140.041 22.3004C140.097 22.2782 140.165 22.2669 140.244 22.2669C140.322 22.2669 140.384 22.2669 140.429 22.2669V23.2287L139.602 23.2961C139.163 23.2961 138.859 23.1893 138.682 22.9755C138.508 22.762 138.421 22.4075 138.421 21.9124C138.162 22.4749 137.819 22.8857 137.391 23.1442C137.043 23.358 136.638 23.465 136.176 23.465C135.288 23.465 134.663 23.1951 134.303 22.6551C134.033 22.2498 133.898 21.6818 133.898 20.9504ZM138.218 18.149C137.307 18.5766 136.7 18.8634 136.396 19.0095C135.653 19.3697 135.282 19.9828 135.282 20.8493C135.282 21.3557 135.397 21.7354 135.628 21.9885C135.858 22.2414 136.154 22.3682 136.514 22.3682C136.941 22.3682 137.332 22.2021 137.687 21.8702C138.041 21.5383 138.218 21.1135 138.218 20.596V18.149Z" fill="#231F20"/>
<path d="M62.3965 36.4265H63.7807V36.8483C63.7807 37.9397 64 38.6599 64.4386 39.0086C64.8325 39.3236 65.4569 39.481 66.3119 39.481C67.0656 39.481 67.6423 39.2701 68.0416 38.8482C68.4411 38.4264 68.6408 37.8384 68.6408 37.0847V36.6458C68.6072 36.2632 68.4944 35.9624 68.3034 35.743C68.1092 35.5234 67.749 35.3012 67.2204 35.0764C67.0037 34.9864 66.4357 34.7725 65.5104 34.4352C65.0688 34.2775 64.6806 34.1256 64.3429 33.9795C63.6088 33.6756 63.1028 33.2089 62.8187 32.5785C62.6499 32.196 62.5655 31.707 62.5655 31.1107C62.5655 29.8954 62.9367 28.9673 63.6792 28.326C64.3319 27.7633 65.1531 27.4823 66.1432 27.4823C67.4932 27.4823 68.4497 27.8535 69.012 28.5958C69.4509 29.1697 69.6702 29.9967 69.6702 31.0765H68.2527C68.2527 30.2666 68.0728 29.6816 67.7125 29.3216C67.3526 28.9615 66.8069 28.7817 66.0757 28.7817C65.333 28.7817 64.7957 28.9843 64.4641 29.3891C64.132 29.7942 63.9662 30.3679 63.9662 31.1107C63.9662 31.7744 64.2755 32.2805 64.8941 32.6294C65.7384 32.9555 66.3738 33.1977 66.8014 33.3551C67.9712 33.8389 68.7082 34.1988 69.012 34.4352C69.6983 34.9639 70.0417 35.712 70.0417 36.6796C70.0417 38.1087 69.6419 39.1717 68.8462 39.8693C68.1825 40.4543 67.3191 40.7469 66.2528 40.7469C64.8044 40.7469 63.7607 40.3415 63.1195 39.5316C62.4022 38.609 62.3965 37.5305 62.3965 36.4265ZM66.8182 24.4275H68.6408L66.4638 26.8072H65.3163L66.8182 24.4275ZM73.6446 40.4431L71.2567 31.0429H72.6404L74.3451 39.3291L75.8639 31.0429H77.2475L78.834 39.3264L80.5049 31.0429H81.8885L79.5597 40.4431H78.1422L76.5221 32.1766L75.0256 40.4402L73.6446 40.4431ZM83.4414 40.4431V31.0429H84.7238V40.4431H83.4414ZM83.4414 29.8784V28.191H84.7238V29.8784H83.4414ZM89.3649 40.6963C88.2624 40.5949 87.4972 39.9367 87.0697 38.7217C86.8108 37.9903 86.6815 37.0398 86.6815 35.8695C86.6815 34.6322 86.8334 33.6083 87.1343 32.7981C87.6378 31.4591 88.493 30.7901 89.7025 30.7901C90.8752 30.7901 91.688 31.2455 92.1353 32.1569C92.4362 32.7755 92.5881 33.7037 92.5881 34.9415V35.8695H88.0654L88.0318 36.3252C88.0318 37.2476 88.116 37.9509 88.2847 38.4348C88.5434 39.1772 89.0104 39.5487 89.6856 39.5487C90.383 39.5487 90.8555 39.2729 91.1029 38.7217C91.2493 38.3954 91.3223 37.9227 91.3223 37.304H92.5881C92.5881 38.3954 92.3294 39.2336 91.8117 39.8184C91.4293 40.2461 90.9287 40.5218 90.3098 40.6454C90.0173 41.0055 89.8287 41.3458 89.7444 41.6664C89.66 41.987 89.618 42.3501 89.618 42.7549C89.618 42.9352 89.6967 43.0954 89.8515 43.236C90.0089 43.3767 90.2255 43.447 90.5037 43.447C90.76 43.447 90.9932 43.3683 91.2044 43.2106L91.0187 43.9531C90.8639 44.0433 90.712 44.0995 90.5659 44.122C90.4224 44.1446 90.2143 44.1556 89.9469 44.1556C89.3874 44.1556 88.9823 44.0462 88.7292 43.8267C88.4788 43.6073 88.3353 43.3009 88.3015 42.9068C88.3015 42.5017 88.3802 42.1279 88.5378 41.7848C88.6953 41.4416 88.971 41.0787 89.3649 40.6963ZM91.2044 34.7725C91.2044 33.6589 91.0722 32.9022 90.8075 32.5027C90.5433 32.1034 90.1805 31.9035 89.7192 31.9035C89.2129 31.9035 88.8192 32.1005 88.5378 32.4943C88.2005 32.9783 88.0318 33.7376 88.0318 34.7725H91.2044ZM94.8834 38.5699V32.1737H93.6008V31.0429H94.8834V28.5115H96.1996V31.0429H97.7858V32.1737H96.1996V38.7217C96.1996 38.9356 96.2419 39.0901 96.3261 39.1856C96.4106 39.2814 96.5877 39.3291 96.8578 39.3291H97.7184V40.4431H96.267C95.6594 40.4431 95.2659 40.2912 95.0857 39.9873C94.9506 39.7625 94.8834 39.2898 94.8834 38.5699ZM98.9672 35.5995C98.9672 34.1705 99.2036 33.0512 99.6759 32.2412C100.227 31.2961 101.088 30.8236 102.258 30.8236C103.484 30.8236 104.373 31.2343 104.924 32.0554C105.431 32.8206 105.684 34.0131 105.684 35.6333C105.684 37.2198 105.453 38.429 104.992 39.2617C104.463 40.2292 103.608 40.713 102.427 40.713C101.2 40.713 100.295 40.2125 99.7099 39.2111C99.2146 38.356 98.9672 37.1521 98.9672 35.5995ZM100.351 35.6333C100.351 36.8147 100.441 37.6697 100.621 38.1984C100.925 39.0985 101.516 39.5487 102.393 39.5487C103.214 39.5487 103.766 39.0872 104.047 38.1648C104.216 37.6246 104.3 36.826 104.3 35.7684C104.3 34.6432 104.204 33.7995 104.013 33.2368C103.709 32.3479 103.147 31.9035 102.326 31.9035C101.493 31.9035 100.925 32.3763 100.621 33.3212C100.441 33.8725 100.351 34.6432 100.351 35.6333ZM107.692 40.4431V27.752H109.042V35.4308L112.316 31.0429H113.869L110.966 34.7052L113.953 40.4431L112.412 40.4459L110.072 35.7684L109.042 37.1185V40.4431H107.692ZM115.404 40.4431V31.0092H116.653V32.6294C116.957 32.0331 117.278 31.617 117.615 31.3804C118.043 31.0765 118.656 30.9247 119.455 30.9247V32.3088C119.252 32.2749 119.123 32.2553 119.067 32.2495C119.01 32.244 118.909 32.2412 118.763 32.2412C118.133 32.2412 117.635 32.4746 117.27 32.9416C116.904 33.4083 116.721 34.075 116.721 34.9415V40.4431H115.404ZM120.383 39.332L124.697 32.1398H120.546V31.0429H126.115V32.1398L121.761 39.3291H126.149V40.4092H120.377L120.383 39.332ZM126.948 42.2825C127.319 42.4176 127.662 42.485 127.977 42.485C128.371 42.485 128.706 42.3415 128.981 42.0547C129.257 41.7677 129.474 41.2868 129.631 40.6118L126.627 31.0429H128.011L130.154 39.2281L132.331 31.0429H133.715L131.167 39.2281C130.672 40.7581 130.402 41.5851 130.357 41.7089C130.076 42.4288 129.777 42.9183 129.463 43.177C129.282 43.3119 129.057 43.4216 128.788 43.506C128.517 43.5905 128.202 43.6325 127.842 43.6325C127.651 43.6325 127.491 43.6241 127.361 43.6073C127.232 43.5905 127.094 43.5596 126.948 43.5145V42.2825ZM134.728 33.3212C134.728 32.5562 134.97 31.9431 135.451 31.4819C135.932 31.0207 136.629 30.7901 137.546 30.7901C138.452 30.7901 139.141 30.9868 139.616 31.3804C140.159 31.8306 140.432 32.5562 140.432 33.5574H139.116C139.116 32.9726 139.009 32.5562 138.792 32.3088C138.576 32.0612 138.193 31.9376 137.647 31.9376C137.136 31.9376 136.753 32.047 136.497 32.2666C136.241 32.4859 136.112 32.7813 136.112 33.1526C136.112 33.8276 136.356 34.3056 136.843 34.587C137.034 34.6994 137.546 34.916 138.373 35.2369C139.2 35.5573 139.805 35.9062 140.184 36.283C140.564 36.6599 140.753 37.1353 140.753 37.7088C140.753 38.6766 140.469 39.4136 139.9 39.92C139.332 40.4263 138.564 40.6792 137.597 40.6792C136.461 40.6792 135.661 40.3415 135.2 39.6665C134.885 39.2053 134.728 38.553 134.728 37.7088H136.01C136.01 38.3051 136.106 38.7441 136.297 39.0253C136.534 39.3743 136.967 39.5487 137.597 39.5487C138.159 39.5487 138.595 39.422 138.905 39.1688C139.214 38.9157 139.369 38.5699 139.369 38.1309C139.369 37.5685 139.211 37.1634 138.893 36.9159C138.699 36.7583 138.17 36.5277 137.304 36.2239C136.435 35.9203 135.861 35.6502 135.577 35.414C135.012 34.9525 134.728 34.2552 134.728 33.3212ZM142.626 40.4431V27.752H143.976V35.4308L147.25 31.0429H148.802L145.9 34.7052L148.887 40.4431L147.345 40.4459L145.005 35.7684L143.976 37.1185V40.4431H142.626ZM149.477 38.1648C149.477 37.3995 149.618 36.8089 149.899 36.3928C150.136 36.0326 150.513 35.7572 151.03 35.5659L153.038 34.739C153.229 34.6713 153.421 34.5981 153.612 34.5194C153.803 34.4071 153.899 34.2382 153.899 34.0131V33.0342C153.899 32.7194 153.803 32.4663 153.612 32.2749C153.365 32.0273 152.999 31.9035 152.515 31.9035C151.93 31.9035 151.542 32.0218 151.351 32.2582C151.159 32.4943 151.064 32.9275 151.064 33.5574H149.849C149.849 32.5785 150.082 31.8728 150.549 31.4396C151.016 31.0063 151.671 30.7901 152.515 30.7901C153.663 30.7901 154.433 31.1107 154.827 31.7516C155.064 32.1341 155.182 32.7362 155.182 33.5574V38.6035C155.182 38.9859 155.21 39.2281 155.266 39.3291C155.322 39.4304 155.44 39.4923 155.62 39.5146C155.677 39.4923 155.744 39.481 155.823 39.481C155.902 39.481 155.964 39.481 156.009 39.481V40.4431L155.182 40.5105C154.743 40.5105 154.439 40.4034 154.262 40.1897C154.088 39.9761 154 39.6216 154 39.1266C153.742 39.6893 153.398 40.0999 152.971 40.3586C152.622 40.5722 152.217 40.6792 151.756 40.6792C150.867 40.6792 150.243 40.4092 149.883 39.8693C149.612 39.4643 149.477 38.896 149.477 38.1648ZM153.798 35.3631C152.887 35.7908 152.279 36.0778 151.975 36.2239C151.233 36.5838 150.861 37.1973 150.861 38.0635C150.861 38.5699 150.977 38.9495 151.207 39.2027C151.438 39.4558 151.733 39.5823 152.093 39.5823C152.521 39.5823 152.912 39.4163 153.266 39.0846C153.62 38.7525 153.798 38.3279 153.798 37.8103V35.3631Z" fill="#231F20"/>
</svg>
